<svg width="48" height="80" viewBox="0 0 48 80" fill="none" xmlns="http://www.w3.org/2000/svg">
<path d="M26.778 80C26.065 36.1027 35.6125 28.7236 41.9311 23.8406C44.4561 21.8897 44.8436 21.5891 44.7104 19.2493L44.7029 19.0562V0H47.9727L47.9787 19.1049C48.2043 23.0582 46.6102 24.29 43.9702 26.3307C38.1496 30.8277 29.362 37.6204 30.0478 79.9484L26.778 80Z" fill="white"/>
<path d="M13.4069 80C12.6939 36.1056 22.2414 28.7251 28.5585 23.842C31.0835 21.8912 31.471 21.5906 31.3378 19.2493L31.3302 19.0562V0H34.6L34.6061 19.1049C34.8301 23.0596 33.2346 24.2915 30.5915 26.3337C24.7755 30.8292 15.9879 37.6218 16.6752 79.9484L13.4069 80Z" fill="white"/>
<path d="M0.0375898 80C-0.673895 36.1027 8.87363 28.7236 15.1922 23.8406C17.7157 21.8912 18.1032 21.5906 17.97 19.2493L17.964 19.0415V0H21.2338L21.2383 19.1196C21.4639 23.0611 19.8683 24.2929 17.2252 26.3337C11.4108 30.8277 2.62164 37.6204 3.30739 79.9484L0.0375898 80Z" fill="white"/>
</svg>
