<svg width="256" height="56" viewBox="0 0 256 56" fill="none" xmlns="http://www.w3.org/2000/svg">
<path d="M67.8218 0H83.3264C94.9547 0 99.9258 4.3722 99.9258 13.3683C99.9258 21.1875 95.1232 25.307 89.2248 26.4003V26.4849C95.6297 26.9892 102.791 30.2681 102.791 40.1894C102.791 49.9415 96.8929 55.3224 85.7701 55.3224H67.8218V0ZM83.5787 25.7268C91.6685 25.7268 97.7354 21.7754 97.7354 13.6199C97.7354 5.46448 93.5219 2.01747 83.3264 2.01747H70.0132V25.7268H83.5787ZM85.6864 53.3875C95.4612 53.3875 100.516 49.1834 100.516 40.1038C100.516 30.9396 94.2807 27.6607 84.0004 27.6607H70.0132V53.3875H85.6864Z" fill="white"/>
<path d="M63.6245 0H61.4331V55.3214H63.6245V0Z" fill="white"/>
<path d="M57.2359 0H55.0444V55.3214H57.2359V0Z" fill="white"/>
<path d="M70.0132 2.1866V0L55.0436 0V2.1866L70.0132 2.1866Z" fill="white"/>
<path d="M70.0132 55.3214V53.1348H55.0436V55.3214H70.0132Z" fill="white"/>
<path d="M120.75 0H135.496C147.882 0 152.349 6.38967 152.349 14.5451C152.349 22.3643 148.979 27.8288 139.626 29.3429V29.5111L155.888 55.3224H153.36L137.35 29.6792H122.941V55.3224H120.75V0ZM135.664 27.9124C146.871 27.9124 150.158 21.7754 150.158 14.5441C150.158 7.31383 146.535 2.01747 135.412 2.01747H122.941V27.9124H135.664Z" fill="white"/>
<path d="M116.607 0H114.416V55.3214H116.607V0Z" fill="white"/>
<path d="M110.22 0.000488281H108.028V55.3219H110.22V0.000488281Z" fill="white"/>
<path d="M122.996 2.18612V-0.000488281L108.027 -0.000488281V2.18612L122.996 2.18612Z" fill="white"/>
<path d="M122.522 55.3209V53.1343H108.026V55.3209H122.522Z" fill="white"/>
<path d="M205.945 0V36.833C205.945 45.5805 203.056 51.0959 197.579 53.8582C195.462 54.9189 192.955 55.5802 190.085 55.8502C189.042 55.9501 187.949 56 186.815 56L185.692 55.9796L177.316 55.8492C174.438 55.5894 171.89 54.9179 169.723 53.8378C164.195 51.0654 161.125 45.5499 161.125 36.9125V0H163.322V36.7434C163.322 47.6132 167.956 52.6376 176.123 53.8389C170.595 51.0664 167.516 45.5611 167.516 36.9135V0H169.713V36.7434C169.713 47.6132 174.337 52.6274 182.493 53.8389C176.965 51.0664 173.895 45.5509 173.895 36.9135V0H176.092V36.7434C176.092 48.1441 181.188 53.1083 190.096 53.9886C198.984 53.0981 204.009 48.1431 204.009 36.7434V0H205.945Z" fill="white"/>
<path d="M176.093 2.191V0.00439453L161.123 0.00439453V2.191L176.093 2.191Z" fill="white"/>
<path d="M256 0.00244141H211.18V2.02399H256V0.00244141Z" fill="white"/>
<path d="M232.497 2.02246V55.3203H234.602V2.02246H232.497Z" fill="white"/>
<path d="M241.075 0H238.883V55.3214H241.075V0Z" fill="white"/>
<path d="M228.296 0H226.105V55.3214H228.296V0Z" fill="white"/>
<path d="M241.074 55.3219V53.1353H226.552V55.3219H241.074Z" fill="white"/>
<path d="M18.0645 55.3214C17.5835 24.9656 24.0242 19.8629 28.2866 16.4862C29.9899 15.1371 30.2513 14.9293 30.1615 13.3112L30.1564 13.1777V0H32.3621L32.3662 13.2114C32.5184 15.9451 31.4431 16.7969 29.6621 18.2082C25.7357 21.3179 19.8077 26.0151 20.2703 55.2857L18.0645 55.3214Z" fill="white"/>
<path d="M9.04451 55.3214C8.56353 24.9677 15.0041 19.8639 19.2655 16.4872C20.9689 15.1381 21.2303 14.9303 21.1404 13.3112L21.1353 13.1777V0H23.3411L23.3452 13.2114C23.4963 15.9461 22.42 16.798 20.637 18.2102C16.7136 21.3189 10.7856 26.0162 11.2492 55.2857L9.04451 55.3214Z" fill="white"/>
<path d="M0.0258458 55.3214C-0.454111 24.9656 5.98651 19.8629 10.2489 16.4862C11.9513 15.1381 12.2127 14.9303 12.1228 13.3112L12.1187 13.1675V0H14.3245L14.3276 13.2215C14.4797 15.9472 13.4034 16.799 11.6204 18.2102C7.69801 21.3179 1.76901 26.0151 2.23161 55.2857L0.0258458 55.3214Z" fill="white"/>
<path d="M40.2212 2.18559V0L12.6308 0V2.18559L40.2212 2.18559Z" fill="white"/>
<path d="M38.0307 55.3213H40.2212L40.2212 -0.000110626H38.0307L38.0307 55.3213Z" fill="white"/>
<path d="M39.749 55.3213V53.1357L-0.000629425 53.1357V55.3213L39.749 55.3213Z" fill="white"/>
</svg>
